<svg width="1836" height="653" viewBox="0 0 1836 653" fill="none" xmlns="http://www.w3.org/2000/svg">
<path d="M18.5862 191.606H73.683V511.433H18.5862V191.606ZM76.3394 54.0742H145.374L69.0336 137.761H21.2401L76.3394 54.0742Z" fill="#232229"/>
<path d="M157.222 191.606H214.314L316.543 458.885L416.118 191.606H469.891L347.083 511.434H282.022L157.222 191.606Z" fill="#232229"/>
<path d="M513.044 351.196C513.044 250.641 586.068 181.875 684.314 181.875C782.559 181.875 854.922 250.641 854.922 351.196C854.922 451.751 782.562 521.172 684.314 521.172C586.065 521.172 513.044 451.749 513.044 351.196ZM684.323 476.401C752.7 476.401 798.505 423.855 798.505 350.546C798.505 277.238 753.363 226.639 684.323 226.639C614.622 226.639 569.488 275.942 569.488 350.546C569.488 425.152 615.276 476.401 684.323 476.401Z" fill="#232229"/>
<path d="M931.892 447.867V54.0742H986.991V444.614C986.991 468.616 998.941 476.401 1018.19 476.401H1033.33V521.165H1007.57C957.112 521.165 931.892 494.568 931.892 447.867Z" fill="#232229"/>
<path d="M1482.17 351.196C1482.17 251.94 1546.57 181.875 1642.16 181.875C1707.88 181.875 1747.71 214.312 1763.64 240.261V191.606H1817.41V511.434H1763.64V458.885C1755.01 475.753 1715.85 521.165 1642.82 521.165C1547.23 521.165 1482.17 453.047 1482.17 351.196ZM1649.46 476.401C1716.51 476.401 1763.64 426.45 1763.64 351.196C1763.64 277.24 1716.51 227.287 1649.46 227.287C1581.09 227.287 1535.94 274.653 1535.94 351.196C1535.94 427.74 1581.09 476.401 1649.46 476.401Z" fill="#232229"/>
<path d="M1106.79 521.179H1162.55C1164.55 556.859 1189.77 590.59 1258.81 590.59C1323.87 590.59 1363.7 552.949 1363.7 484.183V444.24C1333.74 478.998 1294.48 494.687 1246.74 494.687C1160.14 494.687 1099.49 433.646 1099.49 340.825C1099.49 241.278 1155.25 181.884 1247.53 181.884C1313.38 181.884 1346.44 216.256 1364.36 240.258V191.618H1418.13V479.646C1418.13 579.551 1353.74 634.06 1258.81 634.06C1161.23 634.055 1112.1 590.595 1106.79 521.179ZM1258.23 449.882C1323.5 449.882 1363.71 401.735 1363.71 339.517C1363.71 271.645 1323.5 226.638 1258.23 226.638C1192.3 226.638 1153.41 271.016 1153.41 339.517C1153.41 402.362 1192.3 449.882 1258.23 449.882Z" fill="#232229"/>
</svg>
