<svg width="168" height="65" viewBox="0 0 168 65" fill="none" xmlns="http://www.w3.org/2000/svg">
<path d="M23.2554 23.0632H26.9765V44.6467H23.2554V23.0632ZM27.1559 13.7819H31.8184L26.6625 19.4295H23.4346L27.1559 13.7819Z" fill="#232229"/>
<path d="M32.6184 23.0632H36.4743L43.3787 41.1005L50.1038 23.0632H53.7355L45.4413 44.6467H41.0472L32.6184 23.0632Z" fill="#232229"/>
<path d="M56.6501 33.8331C56.6501 27.0471 61.582 22.4065 68.2173 22.4065C74.8527 22.4065 79.7399 27.0471 79.7399 33.8331C79.7399 40.619 74.8529 45.3039 68.2173 45.3039C61.5818 45.3039 56.6501 40.6188 56.6501 33.8331ZM68.218 42.2825C72.836 42.2825 75.9296 38.7365 75.9296 33.7892C75.9296 28.842 72.8808 25.4274 68.218 25.4274C63.5105 25.4274 60.4622 28.7546 60.4622 33.7892C60.4622 38.824 63.5547 42.2825 68.218 42.2825Z" fill="#232229"/>
<path d="M84.9382 40.3569V13.7819H88.6595V40.1374C88.6595 41.7572 89.4666 42.2825 90.7666 42.2825H91.7892V45.3034H90.0492C86.6415 45.3034 84.9382 43.5085 84.9382 40.3569Z" fill="#232229"/>
<path d="M122.103 33.8331C122.103 27.1348 126.452 22.4065 132.908 22.4065C137.347 22.4065 140.037 24.5955 141.113 26.3467V23.0632H144.745V44.6467H141.113V41.1005C140.53 42.2388 137.885 45.3034 132.953 45.3034C126.497 45.3034 122.103 40.7065 122.103 33.8331ZM133.401 42.2825C137.93 42.2825 141.113 38.9116 141.113 33.8331C141.113 28.8422 137.93 25.4711 133.401 25.4711C128.784 25.4711 125.735 28.6676 125.735 33.8331C125.735 38.9986 128.784 42.2825 133.401 42.2825Z" fill="#232229"/>
<path d="M96.7507 45.3043H100.517C100.651 47.7122 102.355 49.9886 107.018 49.9886C111.412 49.9886 114.102 47.4484 114.102 42.8077V40.1121C112.078 42.4578 109.427 43.5165 106.202 43.5165C100.353 43.5165 96.2576 39.3972 96.2576 33.1333C96.2576 26.4153 100.024 22.4071 106.256 22.4071C110.703 22.4071 112.936 24.7267 114.146 26.3465V23.064H117.778V42.5015C117.778 49.2436 113.429 52.9221 107.018 52.9221C100.427 52.9218 97.1095 49.9889 96.7507 45.3043ZM106.978 40.4929C111.387 40.4929 114.102 37.2437 114.102 33.045C114.102 28.4646 111.387 25.4274 106.978 25.4274C102.526 25.4274 99.899 28.4222 99.899 33.045C99.899 37.286 102.526 40.4929 106.978 40.4929Z" fill="#232229"/>
</svg>
