<svg width="17" height="16" viewBox="0 0 17 16" fill="none" xmlns="http://www.w3.org/2000/svg">
<path d="M1 6.73633C0.447715 6.73633 0 7.18404 0 7.73633C0 8.28861 0.447715 8.73633 1 8.73633V6.73633ZM16.7071 8.44343C17.0976 8.05291 17.0976 7.41975 16.7071 7.02922L10.3431 0.66526C9.95262 0.274736 9.31946 0.274736 8.92893 0.66526C8.53841 1.05578 8.53841 1.68895 8.92893 2.07947L14.5858 7.73633L8.92893 13.3932C8.53841 13.7837 8.53841 14.4169 8.92893 14.8074C9.31946 15.1979 9.95262 15.1979 10.3431 14.8074L16.7071 8.44343ZM1 8.73633H16V6.73633H1V8.73633Z" fill="#BDBDBD"/>
</svg>
