<svg width="86" height="25" viewBox="0 0 86 25" fill="none" xmlns="http://www.w3.org/2000/svg">
<rect y="0.5" width="86" height="24" rx="1" fill="#232229"/>
<path d="M20.4241 7.5H18.7555V15.9611H20.4241V7.5Z" fill="white"/>
<path d="M16.8389 7.97345H15.1704V16.4344H16.8389V7.97345Z" fill="white"/>
<path d="M13.2537 8.50202H11.5852V16.9645H13.2537V8.50202Z" fill="white"/>
<path d="M9.66852 9.03646H8L8.00001 17.5H9.66853L9.66852 9.03646Z" fill="white"/>
<path d="M64.4927 12.0075L61.8061 9.02045H60.2356V15.9364H61.8754V11.5239L64.3281 14.1382H64.6312L67.0418 11.5239V15.9364H68.6816V9.02045H67.111L64.4927 12.0075Z" fill="white"/>
<path d="M76.494 9.02045L72.4296 13.5156V9.02045H70.7898V15.9364H72.2921L76.3566 11.4413V15.9364H77.9964V9.02045H76.494Z" fill="white"/>
<path d="M51.403 11.5511C51.403 12.6522 52.0051 13.5196 52.9294 13.8833L51.1962 15.9364H53.2034L54.78 14.0687H56.4861V15.9364H58.1259V9.02045H53.951C52.3945 9.02045 51.403 10.0853 51.403 11.5511ZM56.4871 10.5437V12.5887H54.2551C53.5105 12.5887 53.1111 12.1737 53.1111 11.5652C53.1111 10.9567 53.5245 10.5417 54.2551 10.5417L56.4871 10.5437Z" fill="white"/>
<path d="M43.7828 10.4036C43.6824 12.7822 43.1806 14.3175 42.1981 14.3175H41.9523V15.9777L42.2142 15.9918C44.1842 16.1016 45.2731 14.3729 45.4517 10.5971H48.0429V15.9364H49.6797V9.02045H43.838L43.7828 10.4036Z" fill="white"/>
<path d="M37.6099 8.92383C35.392 8.92383 33.7963 10.4591 33.7963 12.478C33.7963 14.5664 35.5325 16.0473 37.6099 16.0473C39.7736 16.0473 41.4546 14.4838 41.4546 12.478C41.4546 10.4722 39.7736 8.92383 37.6099 8.92383ZM37.6099 14.3871C36.3564 14.3871 35.5024 13.5711 35.5024 12.478C35.5024 11.3578 36.3575 10.5639 37.6099 10.5639C38.8624 10.5639 39.7455 11.394 39.7455 12.478C39.7455 13.562 38.8503 14.3871 37.6099 14.3871Z" fill="white"/>
<path d="M32.0572 9.0335H26.2696L26.2144 10.4167C26.1321 12.4094 25.6123 14.3043 24.6298 14.3315L24.1752 14.3456V17.4996L25.8291 17.4963V15.9374H31.5745V17.4963H33.2424V14.3315H32.0572V9.0335ZM30.4174 14.3315H26.9179C27.51 13.4329 27.8272 12.1323 27.8824 10.6111H30.4174V14.3315Z" fill="white"/>
</svg>
