<svg width="41" height="33" viewBox="0 0 41 33" fill="none" xmlns="http://www.w3.org/2000/svg">
<g clip-path="url(#clip0_8002_14855)">
<path d="M7.43107 32.4298V30.3061C7.43107 29.4937 6.93867 28.9617 6.0934 28.9617C5.67076 28.9617 5.21119 29.1019 4.89524 29.5638C4.64904 29.1762 4.29616 28.9617 3.76684 28.9617C3.41395 28.9617 3.06107 29.0689 2.78205 29.4566V29.0318H2.04346V32.4298H2.78205V30.5535C2.78205 29.9514 3.098 29.6669 3.59039 29.6669C4.08279 29.6669 4.32899 29.9844 4.32899 30.5535V32.4298H5.06758V30.5535C5.06758 29.9514 5.42046 29.6669 5.87592 29.6669C6.36832 29.6669 6.61451 29.9844 6.61451 30.5535V32.4298H7.43107ZM18.3868 29.0318H17.1887V28.005H16.4501V29.0318H15.7812V29.704H16.4501V31.2628C16.4501 32.0421 16.766 32.4999 17.6113 32.4999C17.9273 32.4999 18.2801 32.3927 18.5263 32.2524L18.313 31.6133C18.0996 31.7535 17.8534 31.7906 17.677 31.7906C17.3241 31.7906 17.1846 31.5762 17.1846 31.2256V29.704H18.3827V29.0318H18.3868ZM24.6567 28.9576C24.234 28.9576 23.9509 29.172 23.7744 29.4524V29.0277H23.0359V32.4256H23.7744V30.5122C23.7744 29.9473 24.0206 29.6256 24.4802 29.6256C24.6197 29.6256 24.7962 29.6628 24.9398 29.6957L25.1531 28.9865C25.0054 28.9576 24.7962 28.9576 24.6567 28.9576ZM15.1822 29.3122C14.8293 29.0648 14.3369 28.9576 13.8076 28.9576C12.9623 28.9576 12.4001 29.3823 12.4001 30.0545C12.4001 30.6195 12.8228 30.9411 13.5614 31.0442L13.9143 31.0813C14.3 31.1514 14.5133 31.2586 14.5133 31.436C14.5133 31.6834 14.2302 31.8607 13.7378 31.8607C13.2454 31.8607 12.8556 31.6834 12.6094 31.5061L12.2565 32.071C12.6422 32.3555 13.1716 32.4957 13.7009 32.4957C14.6857 32.4957 15.2519 32.0339 15.2519 31.3988C15.2519 30.7968 14.7924 30.4793 14.0907 30.372L13.7378 30.3349C13.4219 30.2978 13.1757 30.2277 13.1757 30.0174C13.1757 29.77 13.4219 29.6298 13.8117 29.6298C14.2343 29.6298 14.6569 29.8071 14.8703 29.9143L15.1822 29.3122ZM34.8328 28.9576C34.4102 28.9576 34.127 29.172 33.9506 29.4524V29.0277H33.212V32.4256H33.9506V30.5122C33.9506 29.9473 34.1968 29.6256 34.6563 29.6256C34.7959 29.6256 34.9723 29.6628 35.1159 29.6957L35.3293 28.9947C35.1857 28.9576 34.9764 28.9576 34.8328 28.9576ZM25.3952 30.7308C25.3952 31.7576 26.101 32.4999 27.1925 32.4999C27.6849 32.4999 28.0378 32.3927 28.3906 32.1122L28.0378 31.5102C27.7546 31.7246 27.4756 31.8277 27.1555 31.8277C26.5565 31.8277 26.1338 31.403 26.1338 30.7308C26.1338 30.0916 26.5565 29.6669 27.1555 29.6339C27.4715 29.6339 27.7546 29.7411 28.0378 29.9514L28.3906 29.3494C28.0378 29.0648 27.6849 28.9617 27.1925 28.9617C26.101 28.9576 25.3952 29.704 25.3952 30.7308ZM32.2272 30.7308V29.0318H31.4886V29.4566C31.2424 29.139 30.8895 28.9617 30.43 28.9617C29.478 28.9617 28.7394 29.704 28.7394 30.7308C28.7394 31.7576 29.478 32.4999 30.43 32.4999C30.9224 32.4999 31.2752 32.3226 31.4886 32.005V32.4298H32.2272V30.7308ZM29.5149 30.7308C29.5149 30.1287 29.9006 29.6339 30.5367 29.6339C31.1357 29.6339 31.5584 30.0957 31.5584 30.7308C31.5584 31.3329 31.1357 31.8277 30.5367 31.8277C29.9047 31.7906 29.5149 31.3287 29.5149 30.7308ZM20.6765 28.9576C19.6917 28.9576 18.9859 29.6669 18.9859 30.7267C18.9859 31.7906 19.6917 32.4957 20.7134 32.4957C21.2058 32.4957 21.6982 32.3555 22.088 32.0339L21.7351 31.5019C21.452 31.7164 21.0991 31.8566 20.7503 31.8566C20.2908 31.8566 19.8353 31.6421 19.7286 31.0442H22.2275C22.2275 30.937 22.2275 30.8669 22.2275 30.7597C22.2603 29.6669 21.6243 28.9576 20.6765 28.9576ZM20.6765 29.5968C21.136 29.5968 21.452 29.8813 21.5217 30.4091H19.7614C19.8312 29.9514 20.1471 29.5968 20.6765 29.5968ZM39.0263 30.7308V27.6875H38.2878V29.4566C38.0416 29.139 37.6887 28.9617 37.2291 28.9617C36.2771 28.9617 35.5386 29.704 35.5386 30.7308C35.5386 31.7576 36.2771 32.4999 37.2291 32.4999C37.7215 32.4999 38.0744 32.3226 38.2878 32.005V32.4298H39.0263V30.7308ZM36.3141 30.7308C36.3141 30.1287 36.6998 29.6339 37.3358 29.6339C37.9349 29.6339 38.3575 30.0957 38.3575 30.7308C38.3575 31.3329 37.9349 31.8277 37.3358 31.8277C36.6998 31.7906 36.3141 31.3287 36.3141 30.7308ZM11.5877 30.7308V29.0318H10.8491V29.4566C10.6029 29.139 10.25 28.9617 9.79046 28.9617C8.83849 28.9617 8.0999 29.704 8.0999 30.7308C8.0999 31.7576 8.83849 32.4999 9.79046 32.4999C10.2828 32.4999 10.6357 32.3226 10.8491 32.005V32.4298H11.5877V30.7308ZM8.8426 30.7308C8.8426 30.1287 9.2283 29.6339 9.86431 29.6339C10.4634 29.6339 10.886 30.0957 10.886 30.7308C10.886 31.3329 10.4634 31.8277 9.86431 31.8277C9.2283 31.7906 8.8426 31.3287 8.8426 30.7308Z" fill="#232229"/>
<path d="M26.0312 3.22559H14.9359V23.2586H26.0312V3.22559Z" fill="#FF5A00"/>
<path d="M15.6745 13.2423C15.6745 9.17217 17.5785 5.55979 20.5 3.22577C18.3499 1.5268 15.6376 0.5 12.6791 0.5C5.67074 0.5 0 6.19897 0 13.2423C0 20.2856 5.67074 25.9845 12.6791 25.9845C15.6376 25.9845 18.3499 24.9577 20.5 23.2588C17.5744 20.9577 15.6745 17.3124 15.6745 13.2423Z" fill="#EB001B"/>
<path d="M41 13.2423C41 20.2856 35.3293 25.9845 28.3209 25.9845C25.3624 25.9845 22.6501 24.9577 20.5 23.2588C23.4585 20.9206 25.3255 17.3124 25.3255 13.2423C25.3255 9.17217 23.4215 5.55979 20.5 3.22577C22.646 1.5268 25.3583 0.5 28.3168 0.5C35.3293 0.5 41 6.23608 41 13.2423Z" fill="#F79E1B"/>
</g>
<defs>
<clipPath id="clip0_8002_14855">
<rect width="41" height="32" fill="white" transform="translate(0 0.5)"/>
</clipPath>
</defs>
</svg>
