<svg width="40" height="41" viewBox="0 0 40 41" fill="none" xmlns="http://www.w3.org/2000/svg">
<g clip-path="url(#clip0_8002_14870)">
<path d="M40 7.67969H0V33.3207H40V7.67969Z" fill="#0E4595"/>
<path d="M15.0359 25.5635L16.7468 15.5246H19.4832L17.7711 25.5635H15.0359ZM27.657 15.741C27.1149 15.5376 26.2653 15.3193 25.2046 15.3193C22.5007 15.3193 20.5961 16.6809 20.5799 18.6323C20.5646 20.0749 21.9396 20.8796 22.9775 21.3598C24.0427 21.8518 24.4007 22.1656 24.3956 22.6051C24.3889 23.278 23.5451 23.5854 22.7586 23.5854C21.6634 23.5854 21.0815 23.4332 20.1829 23.0584L19.8302 22.8989L19.4462 25.1463C20.0853 25.4265 21.2672 25.6692 22.4943 25.6818C25.3707 25.6818 27.2379 24.3358 27.2592 22.252C27.2694 21.11 26.5405 20.2409 24.9617 19.5244C24.0053 19.06 23.4196 18.7501 23.4258 18.2798C23.4258 17.8626 23.9216 17.4163 24.9928 17.4163C25.8876 17.4025 26.5359 17.5976 27.0409 17.8009L27.2861 17.9168L27.657 15.741ZM34.6985 15.5244H32.584C31.929 15.5244 31.4388 15.7032 31.1512 16.3569L27.0874 25.5569H29.9608C29.9608 25.5569 30.4305 24.3198 30.5368 24.0483C30.8509 24.0483 33.6421 24.0526 34.0413 24.0526C34.1231 24.4041 34.3741 25.5569 34.3741 25.5569H36.9133L34.6985 15.5241V15.5244ZM31.3437 22.007C31.57 21.4286 32.434 19.2007 32.434 19.2007C32.4178 19.2274 32.6586 18.6194 32.7968 18.2425L32.9816 19.1081C32.9816 19.1081 33.5057 21.5045 33.6152 22.007H31.3437ZM12.713 15.5244L10.034 22.3706L9.7485 20.9793C9.24979 19.3755 7.69594 17.638 5.95886 16.7681L8.4084 25.5476L11.3036 25.5443L15.6115 15.5243H12.713" fill="white"/>
<path d="M7.53432 15.5236H3.12196L3.08704 15.7325C6.51975 16.5635 8.79114 18.5716 9.73422 20.9843L8.77473 16.371C8.60909 15.7353 8.12873 15.5456 7.53442 15.5234" fill="#F2AE14"/>
</g>
<defs>
<clipPath id="clip0_8002_14870">
<rect width="40" height="40" fill="white" transform="translate(0 0.5)"/>
</clipPath>
</defs>
</svg>
